<?xml version="1.0" encoding="UTF-8" standalone="no"?>
<!-- Created with Inkscape (http://www.inkscape.org/) -->

<svg
   xmlns:dc="http://purl.org/dc/elements/1.1/"
   xmlns:cc="http://creativecommons.org/ns#"
   xmlns:rdf="http://www.w3.org/1999/02/22-rdf-syntax-ns#"
   xmlns:svg="http://www.w3.org/2000/svg"
   xmlns="http://www.w3.org/2000/svg"
   xmlns:sodipodi="http://sodipodi.sourceforge.net/DTD/sodipodi-0.dtd"
   xmlns:inkscape="http://www.inkscape.org/namespaces/inkscape"
   width="64mm"
   height="96mm"
   viewBox="0 0 64 96"
   version="1.1"
   id="svg1233"
   inkscape:version="0.92.5 (2060ec1f9f, 2020-04-08)"
   sodipodi:docname="logo3.svg">
  <defs
     id="defs1227" />
  <sodipodi:namedview
     id="base"
     pagecolor="#ffffff"
     bordercolor="#666666"
     borderopacity="1.0"
     inkscape:pageopacity="0.0"
     inkscape:pageshadow="2"
     inkscape:zoom="0.98994949"
     inkscape:cx="-322.89522"
     inkscape:cy="226.59401"
     inkscape:document-units="mm"
     inkscape:current-layer="layer1"
     showgrid="false"
     inkscape:window-width="1920"
     inkscape:window-height="1024"
     inkscape:window-x="0"
     inkscape:window-y="0"
     inkscape:window-maximized="1" />
  <metadata
     id="metadata1230">
    <rdf:RDF>
      <cc:Work
         rdf:about="">
        <dc:format>image/svg+xml</dc:format>
        <dc:type
           rdf:resource="http://purl.org/dc/dcmitype/StillImage" />
        <dc:title />
      </cc:Work>
    </rdf:RDF>
  </metadata>
  <g
     inkscape:label="Ebene 1"
     inkscape:groupmode="layer"
     id="layer1"
     transform="translate(0,-201)">
    <g
       transform="matrix(0.48262798,0,0,0.49158904,-18.513369,170.29812)"
       id="g1069">
      <g
         transform="matrix(6.5867076,0,0,8.2454897,2487.5523,-1169.0766)"
         id="g1055"
         style="fill:#000000">
        <path
           inkscape:connector-curvature="0"
           id="path1051"
           d="m -371.14027,170.28885 c 0.0658,-6.21325 -0.15937,-6.94372 0.002,-12.66205 0.71554,-2.58766 3.70282,-2.36943 3.70864,-4.01361 v -1.02889 h 5.55625 5.55625 v 1.02889 c 0.29437,2.05434 3.2368,1.62792 3.83695,4.31314 0.002,5.28617 0.28872,8.35974 -0.1397,12.24444 -0.23778,1.14566 -1.33522,2.46525 -2.25995,2.7907 -3.57235,0.23621 -9.43613,-0.1104 -13.72156,-0.0124 -1.24423,-0.37736 -2.14702,-1.48305 -2.53888,-2.66022 z"
           style="fill:#000000;stroke-width:0.26458332"
           sodipodi:nodetypes="cccccccccccc" />
        <path
           style="fill:#000000;fill-opacity:1;stroke-width:0.26458332"
           d="m -368.01878,150.13268 h 12.174 c 0.23558,0 0.42523,0.18965 0.42523,0.42523 v 1.64841 c 0,0.23557 -0.18965,0.42522 -0.42523,0.42522 h -12.174 c -0.23557,0 -0.42522,-0.18965 -0.42522,-0.42522 v -1.64841 c 0,-0.23558 0.18965,-0.42523 0.42522,-0.42523 z"
           id="path1053"
           inkscape:connector-curvature="0"
           sodipodi:nodetypes="sssssssss" />
      </g>
      <g
         transform="matrix(0.51483661,0,0,0.60274872,52.709664,108.67613)"
         id="g1067"
         style="fill:#ffff00;stroke:#ffcc00;stroke-opacity:1">
        <ellipse
           style="fill:#ffff00;fill-opacity:1;stroke:#ffcc00;stroke-width:7.03791666;stroke-miterlimit:4;stroke-dasharray:none;stroke-opacity:1"
           id="ellipse1057"
           cx="100.15925"
           cy="106.90454"
           rx="20.379301"
           ry="37.618187" />
        <ellipse
           style="fill:#ffff00;fill-opacity:1;stroke:#ffcc00;stroke-width:7.41795301;stroke-miterlimit:4;stroke-dasharray:none;stroke-opacity:1"
           id="ellipse1059"
           cx="164.69699"
           cy="52.797005"
           rx="1.948138"
           ry="4.8881025"
           transform="rotate(47.174898)" />
        <ellipse
           transform="matrix(-0.72092108,0.69301716,0.69301716,0.72092108,0,0)"
           ry="4.8881025"
           rx="1.948138"
           cy="202.24855"
           cx="16.468302"
           id="ellipse1061"
           style="fill:#ffff00;fill-opacity:1;stroke:#ffcc00;stroke-width:7.41795301;stroke-miterlimit:4;stroke-dasharray:none;stroke-opacity:1" />
        <ellipse
           transform="rotate(1.3730124)"
           ry="4.8881025"
           rx="1.948138"
           cy="164.3839"
           cx="104.4622"
           id="ellipse1063"
           style="fill:#ffff00;fill-opacity:1;stroke:#ffcc00;stroke-width:7.41795301;stroke-miterlimit:4;stroke-dasharray:none;stroke-opacity:1" />
        <path
           style="fill:#ffff00;fill-opacity:1;stroke:#ffcc00;stroke-width:4.70284891;stroke-miterlimit:4;stroke-dasharray:none;stroke-opacity:1"
           d="m 163.38114,129.41527 c 0,11.56787 -26.29344,-7.91963 -61.03591,-7.91963 -34.742438,0 -64.777658,19.4875 -64.777658,7.91963 0,-11.56787 28.16433,-47.932976 62.906768,-47.932976 34.74247,0 62.9068,36.365106 62.9068,47.932976 z"
           id="path1065"
           inkscape:connector-curvature="0"
           sodipodi:nodetypes="sssss" />
      </g>
    </g>
  </g>
</svg>
