<?xml version="1.0" encoding="UTF-8" standalone="no"?>
<!-- Created with Inkscape (http://www.inkscape.org/) -->

<svg
   xmlns:dc="http://purl.org/dc/elements/1.1/"
   xmlns:cc="http://creativecommons.org/ns#"
   xmlns:rdf="http://www.w3.org/1999/02/22-rdf-syntax-ns#"
   xmlns:svg="http://www.w3.org/2000/svg"
   xmlns="http://www.w3.org/2000/svg"
   xmlns:xlink="http://www.w3.org/1999/xlink"
   xmlns:sodipodi="http://sodipodi.sourceforge.net/DTD/sodipodi-0.dtd"
   xmlns:inkscape="http://www.inkscape.org/namespaces/inkscape"
   width="35mm"
   height="35mm"
   viewBox="0 0 35 35"
   version="1.1"
   id="svg1233"
   inkscape:version="0.92.5 (2060ec1f9f, 2020-04-08)"
   sodipodi:docname="logo.svg">
  <defs
     id="defs1227">
    <linearGradient
       id="linearGradient1541"
       inkscape:collect="always">
      <stop
         id="stop1537"
         offset="0"
         style="stop-color:#d45500;stop-opacity:1;" />
      <stop
         id="stop1539"
         offset="1"
         style="stop-color:#eebb03;stop-opacity:1" />
    </linearGradient>
    <linearGradient
       id="linearGradient1535"
       inkscape:collect="always">
      <stop
         id="stop1531"
         offset="0"
         style="stop-color:#d45500;stop-opacity:1;" />
      <stop
         id="stop1533"
         offset="1"
         style="stop-color:#eebb03;stop-opacity:1" />
    </linearGradient>
    <linearGradient
       id="linearGradient1529"
       inkscape:collect="always">
      <stop
         id="stop1525"
         offset="0"
         style="stop-color:#d45500;stop-opacity:1;" />
      <stop
         id="stop1527"
         offset="1"
         style="stop-color:#eebb03;stop-opacity:1" />
    </linearGradient>
    <linearGradient
       inkscape:collect="always"
       id="linearGradient1515">
      <stop
         style="stop-color:#d45500;stop-opacity:1;"
         offset="0"
         id="stop1511" />
      <stop
         style="stop-color:#eebb03;stop-opacity:1"
         offset="1"
         id="stop1513" />
    </linearGradient>
    <linearGradient
       inkscape:collect="always"
       id="linearGradient1507">
      <stop
         style="stop-color:#3c4f9d;stop-opacity:1;"
         offset="0"
         id="stop1503" />
      <stop
         style="stop-color:#00112b;stop-opacity:1"
         offset="1"
         id="stop1505" />
    </linearGradient>
    <inkscape:path-effect
       effect="skeletal"
       id="path-effect1501"
       is_visible="true"
       pattern="m 52.479772,278.28837 c -0.026,-0.17916 -0.05606,-0.358 -0.09013,-0.53636 -0.08321,-0.38237 -0.184878,-0.76166 -0.304583,-1.13645 -0.119729,-0.37482 -0.257354,-0.74467 -0.412384,-1.10817 -0.155023,-0.36348 -0.327271,-0.72016 -0.51605,-1.06868 -0.188759,-0.34854 -0.393855,-0.6885 -0.614489,-1.0186 -0.156384,-0.23381 -0.320393,-0.46257 -0.491733,-0.6858 -0.241954,-0.315 -0.498254,-0.61865 -0.768108,-0.90972 -0.270286,-0.29064 -0.552711,-0.56939 -0.847788,-0.83359 -0.204625,-0.17781 -0.414587,-0.3489 -0.629485,-0.51302 -0.0954,-0.0801 -0.191983,-0.15877 -0.289634,-0.23592 -0.113438,-0.0787 -0.228152,-0.15539 -0.343876,-0.23025 -0.20833,-0.14894 -0.420944,-0.29119 -0.637346,-0.42667 -0.336458,-0.20291 -0.681358,-0.38926 -1.033516,-0.55834 -0.352159,-0.16907 -0.711075,-0.32064 -1.075461,-0.45416 -0.364387,-0.13351 -0.733769,-0.24881 -1.106735,-0.34543 -0.37298,-0.0966 -0.749089,-0.17445 -1.126921,-0.23321 -0.377826,-0.0588 -0.756898,-0.0984 -1.135813,-0.11877 -0.378884,-0.0204 -0.757135,-0.0214 -1.133313,-0.003 -0.07846,0.007 -0.156745,0.0149 -0.234908,0.0236 7.492888,1.51727 10.094192,3.24765 12.792262,10.39261 z"
       copytype="single_stretched"
       prop_scale="8.29755"
       scale_y_rel="false"
       spacing="0"
       normal_offset="0"
       tang_offset="0"
       prop_units="false"
       vertical_pattern="false"
       fuse_tolerance="0" />
    <inkscape:path-effect
       effect="skeletal"
       id="path-effect1491"
       is_visible="true"
       pattern="m 52.479772,278.28837 c -0.026,-0.17916 -0.05606,-0.358 -0.09013,-0.53636 -0.08321,-0.38237 -0.184878,-0.76166 -0.304583,-1.13645 -0.119729,-0.37482 -0.257354,-0.74467 -0.412384,-1.10817 -0.155023,-0.36348 -0.327271,-0.72016 -0.51605,-1.06868 -0.188759,-0.34854 -0.393855,-0.6885 -0.614489,-1.0186 -0.156384,-0.23381 -0.320393,-0.46257 -0.491733,-0.6858 -0.241954,-0.315 -0.498254,-0.61865 -0.768108,-0.90972 -0.270286,-0.29064 -0.552711,-0.56939 -0.847788,-0.83359 -0.204625,-0.17781 -0.414587,-0.3489 -0.629485,-0.51302 -0.0954,-0.0801 -0.191983,-0.15877 -0.289634,-0.23592 -0.113438,-0.0787 -0.228152,-0.15539 -0.343876,-0.23025 -0.20833,-0.14894 -0.420944,-0.29119 -0.637346,-0.42667 -0.336458,-0.20291 -0.681358,-0.38926 -1.033516,-0.55834 -0.352159,-0.16907 -0.711075,-0.32064 -1.075461,-0.45416 -0.364387,-0.13351 -0.733769,-0.24881 -1.106735,-0.34543 -0.37298,-0.0966 -0.749089,-0.17445 -1.126921,-0.23321 -0.377826,-0.0588 -0.756898,-0.0984 -1.135813,-0.11877 -0.378884,-0.0204 -0.757135,-0.0214 -1.133313,-0.003 -0.07846,0.007 -0.156745,0.0149 -0.234908,0.0236 7.492888,1.51727 10.094192,3.24765 12.792262,10.39261 z"
       copytype="single_stretched"
       prop_scale="8.29755"
       scale_y_rel="false"
       spacing="0"
       normal_offset="0"
       tang_offset="0"
       prop_units="false"
       vertical_pattern="false"
       fuse_tolerance="0" />
    <marker
       inkscape:stockid="SemiCircleIn"
       orient="auto"
       refY="0.0"
       refX="0.0"
       id="SemiCircleIn"
       style="overflow:visible"
       inkscape:isstock="true">
      <path
         id="path1336"
         d="M -0.37450702,-0.045692580 C -0.37450702,2.7143074 1.8654930,4.9543074 4.6254930,4.9543074 L 4.6254930,-5.0456926 C 1.8654930,-5.0456926 -0.37450702,-2.8056926 -0.37450702,-0.045692580 z "
         style="fill-rule:evenodd;stroke:#00112b;stroke-width:1pt;stroke-opacity:1;fill:#00112b;fill-opacity:1"
         transform="scale(0.6)" />
    </marker>
    <marker
       inkscape:stockid="DotL"
       orient="auto"
       refY="0.0"
       refX="0.0"
       id="DotL"
       style="overflow:visible"
       inkscape:isstock="true">
      <path
         id="path1219"
         d="M -2.5,-1.0 C -2.5,1.7600000 -4.7400000,4.0 -7.5,4.0 C -10.260000,4.0 -12.5,1.7600000 -12.5,-1.0 C -12.5,-3.7600000 -10.260000,-6.0 -7.5,-6.0 C -4.7400000,-6.0 -2.5,-3.7600000 -2.5,-1.0 z "
         style="fill-rule:evenodd;stroke:#00112b;stroke-width:1pt;stroke-opacity:1;fill:#00112b;fill-opacity:1"
         transform="scale(0.8) translate(7.4, 1)" />
    </marker>
    <linearGradient
       inkscape:collect="always"
       xlink:href="#linearGradient1507"
       id="linearGradient1509"
       x1="17.197916"
       y1="282.44791"
       x2="17.197916"
       y2="253.34375"
       gradientUnits="userSpaceOnUse" />
    <linearGradient
       inkscape:collect="always"
       xlink:href="#linearGradient1515"
       id="linearGradient1517"
       x1="17.197916"
       y1="295.67709"
       x2="17.197916"
       y2="287.73959"
       gradientUnits="userSpaceOnUse" />
    <linearGradient
       inkscape:collect="always"
       xlink:href="#linearGradient1541"
       id="linearGradient1519"
       x1="17.197916"
       y1="295.67709"
       x2="17.197916"
       y2="291.70834"
       gradientUnits="userSpaceOnUse" />
    <linearGradient
       inkscape:collect="always"
       xlink:href="#linearGradient1535"
       id="linearGradient1521"
       x1="17.197916"
       y1="295.67709"
       x2="17.197916"
       y2="287.73959"
       gradientUnits="userSpaceOnUse" />
    <linearGradient
       inkscape:collect="always"
       xlink:href="#linearGradient1529"
       id="linearGradient1523"
       x1="18.520834"
       y1="279.80209"
       x2="17.197916"
       y2="285.09375"
       gradientUnits="userSpaceOnUse" />
  </defs>
  <sodipodi:namedview
     id="base"
     pagecolor="#ffffff"
     bordercolor="#666666"
     borderopacity="1.0"
     inkscape:pageopacity="0.0"
     inkscape:pageshadow="2"
     inkscape:zoom="0.9899495"
     inkscape:cx="156.49004"
     inkscape:cy="-79.47924"
     inkscape:document-units="mm"
     inkscape:current-layer="layer1"
     showgrid="true"
     inkscape:window-width="1920"
     inkscape:window-height="1024"
     inkscape:window-x="0"
     inkscape:window-y="0"
     inkscape:window-maximized="1">
    <inkscape:grid
       type="xygrid"
       id="grid861" />
  </sodipodi:namedview>
  <metadata
     id="metadata1230">
    <rdf:RDF>
      <cc:Work
         rdf:about="">
        <dc:format>image/svg+xml</dc:format>
        <dc:type
           rdf:resource="http://purl.org/dc/dcmitype/StillImage" />
        <dc:title />
      </cc:Work>
    </rdf:RDF>
  </metadata>
  <g
     inkscape:label="Ebene 1"
     inkscape:groupmode="layer"
     id="layer1"
     transform="translate(0,-262)">
    <g
       id="g919">
      <path
         style="opacity:1;fill:url(#linearGradient1517);fill-opacity:1;stroke:none;stroke-width:0.79374987;stroke-miterlimit:4;stroke-dasharray:none;stroke-opacity:1"
         d="m 24.773596,286.59434 c -0.08279,-10e-6 -0.165784,0.004 -0.24837,0.0124 -0.08279,0.008 -0.16459,0.0207 -0.245975,0.0373 -0.0818,0.0165 -0.161691,0.037 -0.240996,0.0616 -0.07879,0.0245 -0.157195,0.053 -0.233601,0.0853 -0.07681,0.0324 -0.151216,0.0684 -0.224025,0.10822 -0.07282,0.0398 -0.143639,0.0831 -0.212065,0.12998 -0.06883,0.0469 -0.13456,0.097 -0.197994,0.15054 -0.06384,0.0534 -0.124185,0.11005 -0.182048,0.16957 -0.05785,0.0595 -0.112606,0.12189 -0.164184,0.18687 -0.05186,0.0651 -0.09984,0.13253 -0.144731,0.20235 -0.04488,0.0698 -0.08578,0.1418 -0.123678,0.21573 -0.02394,0.0497 -0.04688,0.10022 -0.06783,0.15144 -0.06184,0.18083 -0.126275,0.3711 -0.16667,0.55441 -0.02394,0.11961 -0.02394,0.16415 -0.02993,0.2469 0,0.0586 -0.01,0.11733 -0.01,0.17606 0,0.083 0,0.16589 0.01296,0.24844 0.01,0.0824 0.02095,0.16462 0.03691,0.24592 0.01596,0.0813 0.03691,0.16174 0.06184,0.24099 0.02494,0.0793 0.05287,0.15728 0.08479,0.23372 0.03193,0.0764 0.06882,0.15115 0.108224,0.22396 0.03291,0.0581 0.06783,0.11504 0.104438,0.17042 0.01,0.014 0.01696,0.0278 0.02593,0.0416 0.04688,0.0684 0.09676,0.13457 0.150518,0.19804 0.05387,0.0634 0.110112,0.12418 0.16966,0.18197 0.05985,0.0579 0.121802,0.11263 0.186833,0.16421 0.06484,0.0516 0.132558,0.0999 0.202389,0.14469 0.06982,0.0448 0.14174,0.0861 0.215651,0.12377 0.07381,0.0376 0.149721,0.0715 0.227015,0.1016 0.07781,0.03 0.156206,0.0562 0.236106,0.0784 0.0798,0.0222 0.160995,0.0404 0.242784,0.0544 0.08179,0.014 0.164186,0.0241 0.246874,0.03 0.05885,0.004 0.117295,0.006 0.176056,0.006 0.08279,0 0.16587,-0.004 0.248369,-0.0125 0.08279,-0.008 0.164681,-0.0206 0.245976,-0.0373 0.08179,-0.0165 0.161791,-0.037 0.240985,-0.0615 0.07978,-0.0245 0.157294,-0.053 0.233701,-0.0854 0.07681,-0.0324 0.151226,-0.0684 0.224036,-0.10815 0.07282,-0.0398 0.143538,-0.0832 0.212053,-0.13005 0.06883,-0.0469 0.134571,-0.0971 0.198007,-0.15054 0.06382,-0.0534 0.124185,-0.11005 0.181933,-0.16957 0.05785,-0.0595 0.112619,-0.12188 0.164286,-0.18686 0.0409,-0.0528 0.0798,-0.1071 0.116497,-0.16296 0.01,-0.0129 0.01896,-0.0262 0.02793,-0.0393 0.04489,-0.0698 0.08577,-0.14185 0.123779,-0.21581 0.03792,-0.0739 0.07184,-0.1497 0.101548,-0.22703 0.02992,-0.0773 0.05587,-0.15613 0.07881,-0.23609 0.02193,-0.0799 0.03988,-0.16091 0.05485,-0.24265 0.01397,-0.0818 0.02394,-0.1642 0.02993,-0.24698 0,-0.0586 0.01,-0.11727 0.01,-0.17599 0,-0.083 0,-0.16588 -0.01197,-0.24843 -0.01,-0.0826 -0.02093,-0.16467 -0.0369,-0.246 -0.01596,-0.0763 -0.03492,-0.15175 -0.05786,-0.22619 0,-0.005 0,-0.01 0,-0.0148 -0.02493,-0.0793 -0.05286,-0.15725 -0.08478,-0.23366 -0.01,-0.0203 -0.01896,-0.0405 -0.02893,-0.0606 -0.02394,-0.0555 -0.05087,-0.10992 -0.0788,-0.16343 -0.0399,-0.0728 -0.08279,-0.14356 -0.130063,-0.21204 -0.04689,-0.0684 -0.09676,-0.13456 -0.150518,-0.19803 -0.05387,-0.0634 -0.110023,-0.12418 -0.169571,-0.18198 -0.05985,-0.0578 -0.121902,-0.11257 -0.186924,-0.16413 -0.06484,-0.0516 -0.132467,-0.0999 -0.202285,-0.14476 -0.06983,-0.0448 -0.141853,-0.0861 -0.215753,-0.12377 -0.07382,-0.0376 -0.149732,-0.0715 -0.227025,-0.1016 -0.0778,-0.03 -0.156208,-0.0563 -0.236098,-0.0784 -0.07979,-0.0222 -0.160892,-0.0404 -0.242681,-0.0544 -0.0818,-0.014 -0.164186,-0.0241 -0.246975,-0.03 -0.05885,-0.004 -0.117308,-0.006 -0.176056,-0.006 z"
         id="path2410"
         inkscape:connector-curvature="0"
         sodipodi:nodetypes="cccccccccccccccccccccccccccccccccccccccccccccccccccccccccccccccccccc" />
      <path
         inkscape:connector-curvature="0"
         style="opacity:1;fill:url(#linearGradient1521);fill-opacity:1;stroke:none;stroke-width:0.79374987;stroke-miterlimit:4;stroke-dasharray:none;stroke-opacity:1"
         d="m 10.07035,286.58134 a 2.4884834,2.4884834 0 0 0 -0.1760539,0.006 2.4884834,2.4884834 0 0 0 -0.2468748,0.03 2.4884834,2.4884834 0 0 0 -0.2426823,0.0544 2.4884834,2.4884834 0 0 0 -0.2360058,0.0784 2.4884834,2.4884834 0 0 0 -0.2271156,0.10159 2.4884834,2.4884834 0 0 0 -0.054871,0.0314 2.4884834,2.4884834 0 0 0 -0.1608814,0.0923 2.4884834,2.4884834 0 0 0 -0.2023889,0.14468 2.4884834,2.4884834 0 0 0 -0.1868221,0.16421 2.4884834,2.4884834 0 0 0 -0.1695694,0.182 2.4884834,2.4884834 0 0 0 -0.1505186,0.19801 2.4884834,2.4884834 0 0 0 -0.130063,0.21205 2.4884834,2.4884834 0 0 0 -0.108135,0.22397 2.4884834,2.4884834 0 0 0 -0.027929,0.0756 2.4884834,2.4884834 0 0 0 -0.057849,0.15814 2.4884834,2.4884834 0 0 0 -0.061839,0.24097 2.4884834,2.4884834 0 0 0 -0.03691,0.24593 2.4884834,2.4884834 0 0 0 0,0.0872 2.4884834,2.4884834 0 0 0 -0.010003,0.16128 2.4884834,2.4884834 0 0 0 0.010003,0.17606 2.4884834,2.4884834 0 0 0 0.02992,0.24691 2.4884834,2.4884834 0 0 0 0.054871,0.24272 2.4884834,2.4884834 0 0 0 0.0788,0.23603 2.4884834,2.4884834 0 0 0 0.1016272,0.2271 2.4884834,2.4884834 0 0 0 0.1237913,0.21574 2.4884834,2.4884834 0 0 0 0.1446289,0.20234 2.4884834,2.4884834 0 0 0 0.1641862,0.18687 2.4884834,2.4884834 0 0 0 0.1819442,0.16958 2.4884834,2.4884834 0 0 0 0.1980951,0.15054 2.4884834,2.4884834 0 0 0 0.2120548,0.12997 2.4884834,2.4884834 0 0 0 0.2239348,0.10822 2.4884834,2.4884834 0 0 0 0.2337131,0.0853 2.4884834,2.4884834 0 0 0 0.2409738,0.0616 2.4884834,2.4884834 0 0 0 0.2459752,0.0372 2.4884834,2.4884834 0 0 0 0.2484702,0.0125 2.4884834,2.4884834 0 0 0 0.175965,-0.006 2.4884834,2.4884834 0 0 0 0.246976,-0.03 2.4884834,2.4884834 0 0 0 0.242671,-0.0544 2.4884834,2.4884834 0 0 0 0.236107,-0.0784 2.4884834,2.4884834 0 0 0 0.227025,-0.1016 2.4884834,2.4884834 0 0 0 0.215753,-0.12376 2.4884834,2.4884834 0 0 0 0.202377,-0.14476 2.4884834,2.4884834 0 0 0 0.186834,-0.16413 2.4884834,2.4884834 0 0 0 0.16957,-0.182 2.4884834,2.4884834 0 0 0 0.150518,-0.19801 2.4884834,2.4884834 0 0 0 0.130063,-0.21204 2.4884834,2.4884834 0 0 0 0.108225,-0.22405 2.4884834,2.4884834 0 0 0 0.08478,-0.23364 2.4884834,2.4884834 0 0 0 0.06185,-0.24097 2.4884834,2.4884834 0 0 0 0.03691,-0.24601 2.4884834,2.4884834 0 0 0 0.01296,-0.24843 2.4884834,2.4884834 0 0 0 -0.01,-0.17599 2.4884834,2.4884834 0 0 0 -0.02992,-0.24698 2.4884834,2.4884834 0 0 0 -0.05487,-0.24264 2.4884834,2.4884834 0 0 0 -0.0788,-0.23611 2.4884834,2.4884834 0 0 0 -0.101639,-0.22702 2.4884834,2.4884834 0 0 0 -0.123679,-0.21574 2.4884834,2.4884834 0 0 0 -0.144741,-0.20235 2.4884834,2.4884834 0 0 0 -0.08179,-0.0933 2.4884834,2.4884834 0 0 0 -0.0818,-0.0936 2.4884834,2.4884834 0 0 0 -0.182034,-0.16957 2.4884834,2.4884834 0 0 0 -0.198106,-0.15054 2.4884834,2.4884834 0 0 0 -0.211954,-0.13004 2.4884834,2.4884834 0 0 0 -0.224036,-0.10816 2.4884834,2.4884834 0 0 0 -0.233601,-0.0854 2.4884834,2.4884834 0 0 0 -0.241086,-0.0616 2.4884834,2.4884834 0 0 0 -0.245875,-0.0371 2.4884834,2.4884834 0 0 0 -0.24847,-0.0125 z"
         id="path2412" />
      <path
         sodipodi:nodetypes="cccccccccccccccccccccccccccccccccccccccccccccccccccccccccccccccccccc"
         inkscape:connector-curvature="0"
         id="path2414"
         d="m 17.516834,289.47688 c -0.08279,0 -0.165781,0.004 -0.248369,0.0125 -0.08279,0.008 -0.164681,0.0206 -0.245976,0.0372 -0.0818,0.0165 -0.16169,0.037 -0.240996,0.0616 -0.0788,0.0245 -0.157195,0.053 -0.233601,0.0853 -0.07681,0.0324 -0.151215,0.0684 -0.224137,0.10822 -0.07281,0.0398 -0.143528,0.0831 -0.211965,0.12999 -0.06882,0.0469 -0.134547,0.0971 -0.197983,0.15053 -0.06384,0.0534 -0.124285,0.11004 -0.182045,0.16958 -0.05785,0.0595 -0.112607,0.12188 -0.164185,0.18686 -0.05186,0.0651 -0.09984,0.13253 -0.144731,0.20235 -0.04488,0.0698 -0.08577,0.14181 -0.12378,0.21573 -0.02394,0.0498 -0.04688,0.10022 -0.06783,0.15145 -0.06184,0.18081 -0.126287,0.3711 -0.166783,0.55441 -0.02393,0.1196 -0.02393,0.16415 -0.02992,0.2469 0,0.0585 -0.01,0.11732 -0.01,0.17606 0,0.083 0,0.16589 0.01198,0.24844 0.01,0.0826 0.02095,0.16462 0.0369,0.24592 0.01596,0.0813 0.03691,0.16174 0.06185,0.24097 0.02494,0.0793 0.05286,0.15729 0.08478,0.23372 0.03192,0.0764 0.06883,0.15117 0.108225,0.22397 0.0329,0.0581 0.06782,0.11504 0.104436,0.17041 0.01,0.014 0.01696,0.0278 0.02593,0.0416 0.04689,0.0684 0.09676,0.13457 0.150518,0.19802 0.05387,0.0634 0.110024,0.12419 0.169571,0.18199 0.05985,0.0579 0.121892,0.11262 0.186922,0.16421 0.06484,0.0516 0.132469,0.0999 0.202288,0.14468 0.06983,0.0448 0.141842,0.0861 0.215753,0.12376 0.07381,0.0376 0.14972,0.0715 0.227025,0.1016 0.0778,0.03 0.156195,0.0563 0.236097,0.0784 0.07979,0.0223 0.160993,0.0404 0.242794,0.0544 0.08179,0.014 0.164085,0.0241 0.246863,0.03 0.05885,0.004 0.117306,0.006 0.175953,0.006 0.08279,-10e-6 0.165872,-0.004 0.248472,-0.0125 0.08279,-0.008 0.164679,-0.0206 0.245975,-0.0372 0.0808,-0.0165 0.16169,-0.037 0.240996,-0.0615 0.07979,-0.0245 0.157296,-0.0531 0.233691,-0.0854 0.07681,-0.0323 0.151125,-0.0684 0.224035,-0.10814 0.07282,-0.0398 0.143539,-0.0832 0.211965,-0.13005 0.06882,-0.0469 0.134558,-0.0971 0.198096,-0.15053 0.06383,-0.0535 0.124184,-0.11006 0.181943,-0.16958 0.05785,-0.0595 0.112609,-0.12189 0.164175,-0.18688 0.0409,-0.0528 0.0798,-0.10709 0.116598,-0.16294 0.01,-0.013 0.01896,-0.0262 0.02794,-0.0393 0.04488,-0.0698 0.08579,-0.14185 0.123781,-0.21579 0.03791,-0.074 0.07182,-0.14971 0.101537,-0.22704 0.02993,-0.0773 0.05586,-0.15614 0.0788,-0.23609 0.02195,-0.0799 0.0399,-0.16091 0.05487,-0.24267 0.01396,-0.0818 0.02394,-0.16418 0.02992,-0.24696 0,-0.0585 0.01,-0.11728 0.01,-0.176 0,-0.083 0,-0.16588 -0.01196,-0.24843 -0.01,-0.0825 -0.02095,-0.16467 -0.03691,-0.246 -0.01596,-0.0763 -0.03491,-0.15174 -0.05786,-0.2262 0,-0.005 0,-0.01 0,-0.0148 -0.02493,-0.0793 -0.05286,-0.15723 -0.08578,-0.23365 -0.01,-0.0203 -0.01895,-0.0405 -0.02892,-0.0605 -0.02394,-0.0555 -0.05088,-0.10995 -0.07881,-0.16345 -0.03988,-0.0728 -0.08279,-0.14357 -0.130063,-0.21205 -0.04688,-0.0684 -0.09676,-0.13456 -0.150518,-0.19802 -0.05386,-0.0634 -0.110023,-0.12419 -0.169569,-0.18197 -0.05985,-0.0578 -0.121881,-0.11258 -0.186924,-0.16415 -0.06484,-0.0516 -0.132468,-0.0999 -0.202288,-0.14476 -0.06982,-0.0448 -0.141831,-0.0861 -0.215752,-0.12376 -0.07381,-0.0376 -0.149721,-0.0715 -0.227015,-0.1016 -0.07781,-0.03 -0.156217,-0.0563 -0.236106,-0.0784 -0.0798,-0.0222 -0.160893,-0.0404 -0.242683,-0.0544 -0.08179,-0.014 -0.164186,-0.0241 -0.246976,-0.03 -0.05885,-0.004 -0.117306,-0.006 -0.176054,-0.006 z"
         style="opacity:1;fill:url(#linearGradient1519);fill-opacity:1;stroke:none;stroke-width:0.79374987;stroke-miterlimit:4;stroke-dasharray:none;stroke-opacity:1" />
      <path
         style="opacity:1;fill:url(#linearGradient1509);fill-opacity:1;fill-rule:nonzero;stroke:none;stroke-width:1.13770843;stroke-miterlimit:4;stroke-dasharray:none;stroke-opacity:1"
         d="m 17.557128,265.00036 c -1.007044,-0.009 -2.017471,0.3353 -2.86253,0.99495 -0.325079,0.25801 -0.637076,0.53212 -0.934819,0.82131 -0.213167,0.21279 -0.418547,0.43325 -0.615844,0.66094 -0.0788,0.0821 -0.156003,0.16527 -0.232308,0.24948 -0.26742,0.31747 -0.518779,0.64811 -0.753088,0.99069 -0.01995,0.0328 -0.0409,0.0657 -0.06085,0.0986 -0.277884,0.005 -0.555476,0.0185 -0.832484,0.0416 -0.412948,0.0414 -0.823604,0.1035 -1.23037,0.18596 -0.4067678,0.0824 -0.8092409,0.18516 -1.205735,0.30778 -0.3964941,0.12265 -0.7866041,0.26505 -1.1689252,0.42666 -0.3822309,0.16161 -0.7562912,0.34225 -1.1204494,0.54122 -0.3642818,0.19897 -0.7182795,0.41601 -1.0609141,0.65035 -0.3425332,0.23435 -0.6731868,0.48567 -0.9906784,0.75304 -0.3174022,0.26738 -0.6213281,0.55044 -0.9104854,0.84817 -0.2891687,0.29774 -0.5632762,0.60977 -0.8213228,0.93491 -0.2579341,0.3251 -0.499526,0.6629 -0.7237531,1.01214 -0.2243281,0.34923 -0.4309992,0.70945 -0.6193274,1.07932 -0.1882158,0.3699 -0.3578977,0.74899 -0.50831527,1.13585 -0.1504063,0.38683 -0.28137961,0.78092 -0.39239165,1.18083 -0.0488804,0.19598 -0.0927704,0.39314 -0.13277161,0.59128 -0.0478801,0.19178 -0.0907698,0.38469 -0.12977068,0.57852 0.10742665,0.0639 0.21585362,0.12599 0.32517974,0.18653 0.1650738,0.0998 0.33235051,0.19583 0.50192007,0.28789 0.3698566,0.18828 0.7488958,0.35792 1.1357126,0.50831 0.3869181,0.1504 0.7810181,0.28136 1.1809063,0.39236 0.3999785,0.11104 0.8051494,0.20201 1.2142201,0.27257 0.4089474,0.0705 0.8212105,0.12056 1.2352604,0.14991 0.2933497,0.0208 0.5872952,0.0312 0.8813529,0.0312 0.4150392,-3e-5 0.8297971,-0.0208 1.2428468,-0.0622 0.4129486,-0.0415 0.8236044,-0.10355 1.2303714,-0.18604 0.2776031,-0.0608 0.5529924,-0.13117 0.8257057,-0.21085 0.127175,-0.0303 0.253854,-0.0628 0.379928,-0.0971 0.137357,-0.0475 0.273905,-0.0974 0.409565,-0.14957 0.01,0.0167 0.01102,0.0335 0.01696,0.0502 0.150407,0.38685 0.319976,0.76594 0.508305,1.13585 0.188215,0.36992 0.394796,0.73018 0.619024,1.07945 0.224327,0.34927 0.46592,0.6871 0.723865,1.01223 0.15071,0.18176 0.306623,0.35919 0.467415,0.53209 0.05885,-0.10372 0.120891,-0.2053 0.186721,-0.30457 0.09376,-0.13724 0.194611,-0.2697 0.301734,-0.3969 0.107124,-0.12718 0.220541,-0.24894 0.339836,-0.36479 0.119296,-0.11586 0.244279,-0.22568 0.374453,-0.32905 0.130266,-0.10337 0.265623,-0.20017 0.405565,-0.29 0.139942,-0.0898 0.28428,-0.1726 0.432505,-0.24802 0.148125,-0.0754 0.300038,-0.14341 0.454939,-0.20368 0.155015,-0.0603 0.313007,-0.11269 0.473203,-0.15715 0.160196,-0.0445 0.322573,-0.0809 0.486466,-0.1092 0.163872,-0.0283 0.329058,-0.0483 0.49484,-0.0602 0.117496,-0.008 0.235095,-0.0125 0.352896,-0.0125 0.166276,-10e-6 0.332463,0.008 0.497841,0.025 0.165478,0.0166 0.329967,0.0415 0.492938,0.0745 0.162995,0.033 0.324192,0.0742 0.483084,0.12336 0.15879,0.0491 0.315098,0.10617 0.468302,0.17089 0.153116,0.0647 0.302937,0.13713 0.44887,0.21686 0.145922,0.0797 0.287865,0.16672 0.425122,0.26065 0.137143,0.0939 0.269611,0.19458 0.396785,0.3017 0.127175,0.10711 0.248966,0.22051 0.364776,0.33978 0.115902,0.11929 0.225723,0.24431 0.329069,0.37458 0.103336,0.13025 0.200187,0.2656 0.289955,0.40553 0.04189,0.069 0.08179,0.1389 0.120398,0.20979 0.169063,-0.1813 0.332744,-0.36763 0.490748,-0.55871 0.257945,-0.32514 0.499525,-0.66296 0.723764,-1.01223 0.224227,-0.34926 0.430898,-0.70952 0.619125,-1.07945 0.188316,-0.3699 0.357886,-0.74899 0.508304,-1.13585 0.01,-0.0167 0.01102,-0.0334 0.01696,-0.0502 v -9e-4 c 0,0 0,9e-4 0,9e-4 0.13566,0.0522 0.272208,0.1021 0.409655,0.14957 0.126084,0.0343 0.252663,0.0666 0.379836,0.0969 0.272816,0.0797 0.548205,0.15006 0.825808,0.21093 0.406766,0.0824 0.817422,0.14458 1.23037,0.18603 0.41295,0.0415 0.827696,0.0622 1.242747,0.0622 0.293855,-3e-5 0.587611,-0.0104 0.880757,-0.0312 0.413961,-0.0293 0.8262,-0.0794 1.235272,-0.1499 0.408959,-0.0705 0.814219,-0.16153 1.214107,-0.27257 0.399991,-0.11102 0.79409,-0.24197 1.180905,-0.39236 0.38682,-0.15039 0.765949,-0.32004 1.135814,-0.5083 0.169659,-0.0922 0.337051,-0.1882 0.502226,-0.28812 0.109316,-0.0605 0.217741,-0.12272 0.325166,-0.18652 -0.0389,-0.19378 -0.08179,-0.38659 -0.129858,-0.5783 -0.0399,-0.19802 -0.08379,-0.39502 -0.132571,-0.59087 -0.111011,-0.39994 -0.241984,-0.79406 -0.392401,-1.1809 -0.150419,-0.38686 -0.31999,-0.76595 -0.508316,-1.13586 -0.188216,-0.36989 -0.394887,-0.73014 -0.619126,-1.07937 -0.224327,-0.34925 -0.465907,-0.68706 -0.723864,-1.01217 -0.258037,-0.32513 -0.532144,-0.63714 -0.821314,-0.9349 -0.289166,-0.29772 -0.592981,-0.58079 -0.910473,-0.84815 -0.317403,-0.26738 -0.648066,-0.51871 -0.990689,-0.75306 -0.342522,-0.23434 -0.696533,-0.45143 -1.060803,-0.65042 -0.364281,-0.19899 -0.738228,-0.37964 -1.120449,-0.54129 -0.382333,-0.16161 -0.772441,-0.30402 -1.168937,-0.42666 -0.396494,-0.12265 -0.798866,-0.22539 -1.205632,-0.30784 -0.406766,-0.0824 -0.817422,-0.14452 -1.230473,-0.18597 -0.276805,-0.0231 -0.554397,-0.0371 -0.83219,-0.0417 0,-10e-6 0,1e-5 0,0 -0.01995,-0.0329 -0.0399,-0.0658 -0.06085,-0.0985 -0.234309,-0.34258 -0.485669,-0.67322 -0.752987,-0.99069 -0.108922,-0.12157 -0.220147,-0.24099 -0.333756,-0.35818 -0.165871,-0.18924 -0.337443,-0.37341 -0.514485,-0.55225 -0.297744,-0.28919 -0.609752,-0.5633 -0.934819,-0.82131 -0.799978,-0.66531 -1.742879,-0.98624 -2.688881,-0.99494 z"
         id="path2416"
         inkscape:connector-curvature="0"
         sodipodi:nodetypes="cccccccccccccccccccccccccccccccccccccccccccccccccccccccccccccccccccccccccccccccccccccccccccccccccccccc" />
      <path
         inkscape:connector-curvature="0"
         id="path2418"
         d="m 17.470347,287.15762 a 12.448821,12.448883 0 0 0 1.006145,-0.48607 12.448821,12.448883 0 0 0 1.060802,-0.65048 12.448821,12.448883 0 0 0 0.990589,-0.75311 12.448821,12.448883 0 0 0 0.910485,-0.84824 12.448821,12.448883 0 0 0 0.330462,-0.37618 4.9874986,4.9875024 0 0 0 -0.120397,-0.2098 4.9874986,4.9875024 0 0 0 -0.289956,-0.40554 4.9874986,4.9875024 0 0 0 -0.329069,-0.37457 4.9874986,4.9875024 0 0 0 -0.364775,-0.33979 4.9874986,4.9875024 0 0 0 -0.396888,-0.3017 4.9874986,4.9875024 0 0 0 -0.425019,-0.26063 4.9874986,4.9875024 0 0 0 -0.44887,-0.21686 4.9874986,4.9875024 0 0 0 -0.468303,-0.1709 4.9874986,4.9875024 0 0 0 -0.483083,-0.12335 4.9874986,4.9875024 0 0 0 -0.492939,-0.0745 4.9874986,4.9875024 0 0 0 -0.497841,-0.0249 4.9874986,4.9875024 0 0 0 -0.352896,0.0125 4.9874986,4.9875024 0 0 0 -0.494839,0.0602 4.9874986,4.9875024 0 0 0 -0.486466,0.10918 4.9874986,4.9875024 0 0 0 -0.473204,0.15717 4.9874986,4.9875024 0 0 0 -0.45504,0.20367 4.9874986,4.9875024 0 0 0 -0.432403,0.24803 4.9874986,4.9875024 0 0 0 -0.405565,0.28998 4.9874986,4.9875024 0 0 0 -0.374453,0.32905 4.9874986,4.9875024 0 0 0 -0.339836,0.36482 4.9874986,4.9875024 0 0 0 -0.301735,0.39688 4.9874986,4.9875024 0 0 0 -0.18672,0.30457 12.448821,12.448883 0 0 0 0.353794,0.40281 12.448821,12.448883 0 0 0 0.910486,0.84823 12.448821,12.448883 0 0 0 0.990488,0.75312 12.448821,12.448883 0 0 0 1.060902,0.65048 12.448821,12.448883 0 0 0 1.006144,0.48606 z"
         style="opacity:1;fill:url(#linearGradient1523);fill-opacity:1;stroke:none;stroke-width:0.79374987;stroke-miterlimit:4;stroke-dasharray:none;stroke-opacity:1" />
      <path
         sodipodi:nodetypes="ccccccccccccccccccccc"
         inkscape:connector-curvature="0"
         id="path2422"
         d="m 34.613261,279.01508 c -0.147059,0.10558 -0.296717,0.20801 -0.448796,0.30722 -0.333102,0.20536 -0.676792,0.3953 -1.029751,0.56912 -0.353005,0.17383 -0.714844,0.33132 -1.084184,0.47187 -0.36932,0.14054 -0.745697,0.26396 -1.127662,0.36981 -0.381968,0.10588 -0.76909,0.19404 -1.159893,0.26417 -0.276885,0.0496 -0.55542,0.0902 -0.835055,0.12168 -0.394719,0.0443 -0.791224,0.0704 -1.188063,0.078 -0.396838,0.007 -0.793527,-0.003 -1.188521,-0.0322 -0.270021,-0.024 -0.538912,-0.0565 -0.806197,-0.0974 -0.123904,-0.0131 -0.247544,-0.0281 -0.370854,-0.0449 -0.135372,-0.0271 -0.270195,-0.0565 -0.404399,-0.0879 -0.251798,-0.0467 -0.501759,-0.10112 -0.749466,-0.16297 -0.37956,-0.10153 -0.75306,-0.22062 -1.119148,-0.35693 -0.366089,-0.13631 -0.72426,-0.28963 -1.073231,-0.45941 -0.348961,-0.16979 -0.688275,-0.35581 -1.016624,-0.55737 -0.328349,-0.20158 -0.645347,-0.41844 -0.949809,-0.64977 -0.304473,-0.23131 -0.596013,-0.47681 -0.873563,-0.73557 -0.277527,-0.25874 -0.540689,-0.53044 -0.78852,-0.81403 -0.04935,-0.0614 -0.09801,-0.12323 -0.145959,-0.18557 6.291263,4.34344 9.342212,5.01627 16.359695,2.00214 z"
         style="opacity:1;fill:#8787de;fill-opacity:1;stroke:#8787de;stroke-width:0.30000001;stroke-miterlimit:4;stroke-dasharray:none;stroke-opacity:1" />
      <path
         style="opacity:1;fill:#8787de;fill-opacity:1;stroke:#8787de;stroke-width:0.3;stroke-miterlimit:4;stroke-dasharray:none;stroke-opacity:1;paint-order:normal;stroke-linecap:round;stroke-linejoin:bevel"
         d="m 0.23047786,279.01508 c 0.147059,0.10558 0.29671667,0.20801 0.44879567,0.30722 0.33310167,0.20536 0.67679167,0.3953 1.02975037,0.56912 0.353005,0.17383 0.7148437,0.33132 1.0841834,0.47187 0.3693197,0.14054 0.7456967,0.26396 1.1276614,0.36981 0.381968,0.10588 0.76909,0.19404 1.1598933,0.26417 0.2768847,0.0496 0.5554197,0.0902 0.8350544,0.12168 0.3947187,0.0443 0.7912237,0.0704 1.1880624,0.078 0.3968377,0.007 0.7935264,-0.003 1.1885204,-0.0322 0.2700207,-0.024 0.5389117,-0.0565 0.8061964,-0.0974 0.123904,-0.0131 0.247544,-0.0281 0.370854,-0.0449 0.1353717,-0.0271 0.2701947,-0.0565 0.4043987,-0.0879 0.2517977,-0.0467 0.5017587,-0.10112 0.7494657,-0.16297 0.37956,-0.10153 0.75306,-0.22062 1.119148,-0.35693 0.366089,-0.13631 0.72426,-0.28963 1.073231,-0.45941 0.348961,-0.16979 0.688275,-0.35581 1.016624,-0.55737 0.328349,-0.20158 0.645347,-0.41844 0.949809,-0.64977 0.304473,-0.23131 0.596013,-0.47681 0.873563,-0.73557 0.277527,-0.25874 0.540689,-0.53044 0.78852,-0.81403 0.04935,-0.0614 0.09801,-0.12323 0.145959,-0.18557 -6.291263,4.34344 -9.3422102,5.01627 -16.35969014,2.00214 z"
         id="path1156"
         inkscape:connector-curvature="0"
         sodipodi:nodetypes="ccccccccccccccccccccc" />
    </g>
  </g>
</svg>
